<svg width="16" height="17" viewBox="0 0 16 17" fill="none" xmlns="http://www.w3.org/2000/svg">
<g clip-path="url(#clip0_353_1234)">
<path d="M8.00016 11.1667C9.47292 11.1667 10.6668 9.97275 10.6668 8.49999C10.6668 7.02724 9.47292 5.83333 8.00016 5.83333C6.5274 5.83333 5.3335 7.02724 5.3335 8.49999C5.3335 9.97275 6.5274 11.1667 8.00016 11.1667Z" stroke="#0723DF" stroke-width="2" stroke-linecap="round" stroke-linejoin="round"/>
<path d="M10.6668 5.83333V9.16666C10.6668 9.69709 10.8776 10.2058 11.2526 10.5809C11.6277 10.9559 12.1364 11.1667 12.6668 11.1667C13.1973 11.1667 13.706 10.9559 14.0811 10.5809C14.4561 10.2058 14.6668 9.69709 14.6668 9.16666V8.49999C14.6667 6.99535 14.1577 5.53498 13.2224 4.35635C12.287 3.17772 10.9805 2.35014 9.51526 2.00819C8.04999 1.66624 6.51213 1.83002 5.15173 2.4729C3.79134 3.11579 2.68843 4.19996 2.02234 5.54914C1.35625 6.89832 1.16615 8.43315 1.48295 9.90407C1.79975 11.375 2.60482 12.6955 3.76726 13.6508C4.92969 14.6062 6.38112 15.1402 7.88555 15.1661C9.38997 15.192 10.8589 14.7082 12.0535 13.7933" stroke="#0723DF" stroke-width="2" stroke-linecap="round" stroke-linejoin="round"/>
</g>
<defs>
<clipPath id="clip0_353_1234">
<rect width="16" height="16" fill="white" transform="translate(0 0.5)"/>
</clipPath>
</defs>
</svg>
