<svg width="58" height="45" viewBox="0 0 58 45" fill="none" xmlns="http://www.w3.org/2000/svg">
<path fill-rule="evenodd" clip-rule="evenodd" d="M0 22.3077V44.6154H29H58V22.3077V0H29H0V22.3077ZM54.5756 22.3077V40.3663H29.107H3.63838V22.3077V4.24908H29.107H54.5756V22.3077ZM16.4797 10.735C7.62989 13.7707 7.39018 30.9737 16.1595 33.7152C21.8159 35.4833 26.6291 32.5246 27.4811 26.7559L27.6283 25.7601H25.6086H23.5889L23.4457 26.4904C22.5847 30.8797 17.1701 31.58 15.1035 27.5694C13.5277 24.5108 13.9542 17.9449 15.8708 15.7604C18.3143 12.9754 23.1144 14.5539 23.1144 18.1425C23.1144 18.5324 23.3922 18.5897 25.2784 18.5897H27.4426L27.2968 17.6263C26.475 12.1904 21.4917 9.01576 16.4797 10.735ZM36.8953 10.7481C27.7445 13.5272 27.6472 31.1437 36.7681 33.759C43.3731 35.6527 48.0873 31.7685 48.3301 24.2331L48.4176 21.511H44.2198H40.0221V23.37V25.2289H42.1624H44.3026V26.1186C44.3026 30.3751 37.9234 32.0091 35.6809 28.3268C34.3191 26.0907 33.9107 21.6416 34.7872 18.5897C36.335 13.1998 42.523 12.6957 43.7506 17.8594C43.9024 18.4973 47.941 18.5709 47.941 17.9359C47.941 12.875 42.1975 9.13766 36.8953 10.7481Z" fill="#C4C4C4"/>
</svg>
