<svg width="24" height="24" viewBox="0 0 24 24" fill="none" xmlns="http://www.w3.org/2000/svg">
<g clip-path="url(#clip0_192_550)">
<path d="M8 15C11.866 15 15 11.866 15 8C15 4.13401 11.866 1 8 1C4.13401 1 1 4.13401 1 8C1 11.866 4.13401 15 8 15Z" stroke="#0723DF" stroke-width="2" stroke-linecap="round" stroke-linejoin="round"/>
<path d="M19.5004 9.93994C20.4312 10.4763 21.226 11.2196 21.8234 12.1124C22.4208 13.0052 22.8046 14.0235 22.9453 15.0885C23.086 16.1534 22.9796 17.2365 22.6346 18.2538C22.2895 19.271 21.7149 20.1953 20.9553 20.9548C20.1957 21.7144 19.2715 22.289 18.2542 22.6341C17.237 22.9792 16.1539 23.0855 15.0889 22.9448C14.024 22.8041 13.0057 22.4203 12.1129 21.8229C11.2201 21.2255 10.4767 20.4307 9.94043 19.4999" stroke="#0723DF" stroke-width="2" stroke-linecap="round" stroke-linejoin="round"/>
<path d="M7 6H8V10" stroke="#0723DF" stroke-width="2" stroke-linecap="round" stroke-linejoin="round"/>
<path d="M17.3002 14.3L18.0002 15L15.2002 17.8" stroke="#0723DF" stroke-width="2" stroke-linecap="round" stroke-linejoin="round"/>
</g>
<defs>
<clipPath id="clip0_192_550">
<rect width="24" height="24" fill="white"/>
</clipPath>
</defs>
</svg>
