<svg width="120" height="29" viewBox="0 0 120 29" fill="none" xmlns="http://www.w3.org/2000/svg">
<path fill-rule="evenodd" clip-rule="evenodd" d="M117.237 28.4578H112.776C112.241 28.479 111.708 28.3894 111.209 28.1948C110.71 28.0001 110.257 27.7045 109.877 27.3265C109.498 26.9484 109.2 26.496 109.002 25.9975C108.805 25.499 108.712 24.965 108.73 24.429V5.76517H111.838V22.9144C111.838 23.7462 111.958 24.5922 112.488 24.8955C112.987 25.0751 113.52 25.1397 114.047 25.0844H116.895V5.76517H120V28.4578H117.237ZM117.293 2.84844L115.752 2.89544H113.029L111.496 2.85643C111.442 2.83756 111.386 2.82854 111.329 2.82982C109.853 2.66487 110.019 0.992344 110.019 0H118.713C118.715 1.01895 118.816 2.69591 117.293 2.84844ZM100.965 28.4578H97.2135C96.6794 28.4783 96.1467 28.3884 95.6487 28.1937C95.1507 27.999 94.6981 27.7036 94.319 27.326C93.9399 26.9484 93.6424 26.4966 93.4451 25.9988C93.2478 25.5011 93.1549 24.9679 93.1722 24.4326V9.81259C93.1547 9.27712 93.2474 8.74377 93.4446 8.24578C93.6418 7.74778 93.9392 7.2958 94.3183 6.91801C94.6975 6.54022 95.1502 6.2447 95.6483 6.04987C96.1464 5.85504 96.6792 5.76507 97.2135 5.78557H100.965C101.499 5.76482 102.032 5.8546 102.53 6.04932C103.029 6.24404 103.482 6.53952 103.861 6.91734C104.24 7.29516 104.538 7.74722 104.735 8.24534C104.932 8.74346 105.025 9.27697 105.008 9.81259V24.4335C105.025 24.9689 104.932 25.5021 104.734 25.9999C104.537 26.4977 104.239 26.9494 103.86 27.327C103.481 27.7045 103.028 27.9997 102.53 28.1943C102.032 28.3889 101.499 28.4786 100.965 28.4578ZM101.903 11.3033C101.903 10.4733 101.782 9.62636 101.252 9.32307C100.752 9.14422 100.219 9.08027 99.6909 9.13595H98.4872C97.9599 9.08029 97.4269 9.14425 96.9276 9.32307C96.3966 9.62636 96.2771 10.4759 96.2771 11.3033V22.909C96.2771 23.74 96.3957 24.586 96.9276 24.8902C97.4273 25.0672 97.96 25.1308 98.4872 25.0764H99.6909C100.219 25.1309 100.752 25.0673 101.252 24.8902C101.783 24.586 101.903 23.7373 101.903 22.909V11.3033ZM85.7641 19.2696H81.6484V28.4587H78.5418V5.78379H85.7641C86.2985 5.76317 86.8314 5.85304 87.3296 6.04782C87.8278 6.24259 88.2806 6.53809 88.6598 6.9159C89.0391 7.29371 89.3366 7.74573 89.5338 8.24379C89.731 8.74184 89.8238 9.27527 89.8063 9.81081V15.2417C89.8239 15.7773 89.7313 16.3108 89.5341 16.809C89.3369 17.3071 89.0394 17.7592 88.6602 18.1372C88.2809 18.5151 87.8281 18.8106 87.3298 19.0055C86.8315 19.2003 86.2985 19.2902 85.7641 19.2696ZM86.6996 11.306C86.6996 10.4733 86.5783 9.62724 86.0508 9.32573C85.5522 9.1456 85.0193 9.08102 84.4922 9.13684H81.6484V15.9103H84.4895C85.0175 15.9659 85.5511 15.9017 86.0508 15.7223C86.5819 15.4208 86.6996 14.5739 86.6996 13.7456V11.3069V11.306ZM71.3133 28.4587H68.2049V9.13595H64.122V5.76606H75.3971V9.13595H71.3133V28.4578V28.4587ZM57.9237 28.4587H54.7764C54.2423 28.4791 53.7097 28.3891 53.2119 28.1943C52.714 27.9995 52.2615 27.7041 51.8825 27.3265C51.5034 26.949 51.2061 26.4972 51.0088 25.9995C50.8116 25.5018 50.7187 24.9687 50.736 24.4335V9.81702C50.7188 9.28185 50.8118 8.74887 51.0091 8.25125C51.2064 7.75363 51.5038 7.30203 51.8828 6.92453C52.2618 6.54704 52.7143 6.25174 53.2121 6.05702C53.7099 5.86229 54.2424 5.77231 54.7764 5.79266H57.9237C58.4578 5.77231 58.9902 5.86229 59.4881 6.05702C59.9859 6.25174 60.4384 6.54704 60.8173 6.92453C61.1963 7.30203 61.4937 7.75363 61.691 8.25125C61.8883 8.74887 61.9813 9.28185 61.9642 9.81702V11.7086H58.8602V11.3033C58.8602 10.4724 58.7371 9.62636 58.2105 9.32307C57.7117 9.14505 57.1794 9.08141 56.6528 9.13684H56.0483C55.5219 9.0813 54.9899 9.14495 54.4914 9.32307C53.9603 9.62636 53.8426 10.4759 53.8426 11.3033V22.9108C53.8426 23.7418 53.9595 24.5869 54.4914 24.8911C54.9902 25.0676 55.522 25.1309 56.0483 25.0764H56.6528C57.1793 25.1308 57.7113 25.0675 58.2105 24.8911C58.7416 24.5869 58.8602 23.7382 58.8602 22.9108V22.5339H61.9642V24.4326C61.9814 24.9678 61.8886 25.5009 61.6913 25.9986C61.4941 26.4964 61.1967 26.9481 60.8177 27.3257C60.4387 27.7032 59.9861 27.9986 59.4883 28.1934C58.9904 28.3882 58.4578 28.4782 57.9237 28.4578V28.4587ZM43.3641 19.1596H38.3191V28.4206H35.193V5.76162H38.3191V15.7826H43.3641V5.76162H46.469V28.4197H43.3641V19.1587V19.1596ZM26.8785 28.4587H23.1258C22.5917 28.4791 22.0591 28.3891 21.5613 28.1943C21.0634 27.9995 20.6109 27.7041 20.2318 27.3265C19.8528 26.949 19.5555 26.4972 19.3582 25.9995C19.161 25.5018 19.0681 24.9687 19.0854 24.4335V9.81259C19.0678 9.2772 19.1605 8.74393 19.3577 8.24599C19.5548 7.74806 19.8521 7.29613 20.2312 6.91834C20.6102 6.54056 21.0628 6.24503 21.5608 6.05014C22.0588 5.85525 22.5915 5.76519 23.1258 5.78557H26.8785C27.413 5.76482 27.946 5.8546 28.4443 6.04932C28.9426 6.24404 29.3956 6.53952 29.7749 6.91734C30.1542 7.29516 30.4518 7.74722 30.6491 8.24534C30.8464 8.74346 30.9391 9.27697 30.9216 9.81259V24.4335C30.9388 24.9689 30.8457 25.5021 30.6483 25.9999C30.4508 26.4977 30.1532 26.9494 29.7739 27.327C29.3946 27.7045 28.9418 27.9997 28.4437 28.1943C27.9455 28.3889 27.4128 28.4786 26.8785 28.4578V28.4587ZM27.8158 11.306C27.8158 10.4733 27.6946 9.62724 27.1653 9.32573C26.6667 9.14566 26.1338 9.08109 25.6067 9.13684H24.3888C23.8617 9.08099 23.3288 9.14557 22.8302 9.32573C22.2991 9.62724 22.1796 10.4733 22.1796 11.306V22.909C22.1796 23.7409 22.2991 24.5869 22.8302 24.8893C23.3292 25.0675 23.8618 25.1317 24.3888 25.0773H25.6067C26.1337 25.1317 26.6662 25.0674 27.1653 24.8893C27.6964 24.5869 27.8158 23.7364 27.8158 22.909V11.3051V11.306ZM2.84496 25.0853H3.06092V9.79485C3.04297 9.2587 3.13556 8.7246 3.3329 8.22591C3.53024 7.72723 3.82808 7.27467 4.20783 6.8965C4.58759 6.51834 5.04108 6.2227 5.54 6.02804C6.03892 5.83339 6.57254 5.7439 7.10752 5.76517H14.3325V25.0844H14.5767C16.5354 25.0844 17.4586 26.5813 17.4188 28.4543H0.00118061C-0.0377631 26.5813 0.886265 25.0844 2.84496 25.0844V25.0853ZM6.15783 25.0853H11.2232V9.13595H8.36611C7.83855 9.07976 7.30514 9.14373 6.80571 9.32307C6.27466 9.62636 6.15517 10.4759 6.15517 11.3051V25.0844L6.15783 25.0853Z" fill="#C4C4C4"/>
</svg>
