<svg width="104" height="35" viewBox="0 0 104 35" fill="none" xmlns="http://www.w3.org/2000/svg">
<path d="M80.3534 20.4556C79.881 20.9704 79.3055 21.3815 78.6637 21.6628C78.022 21.9441 77.3282 22.0892 76.6267 22.0889C75.9658 22.0908 75.3111 21.9634 74.6999 21.7141C74.0886 21.4648 73.5328 21.0984 73.0642 20.6359C72.5957 20.1733 72.2234 19.6237 71.9688 19.0184C71.7142 18.4131 71.5822 17.764 71.5804 17.108C71.5845 15.7836 72.1185 14.515 73.0648 13.5812C74.0111 12.6475 75.2923 12.125 76.6267 12.1287C77.7143 12.1287 78.7204 12.4725 79.5463 13.0527L82.2967 9.23382C80.6396 8.0673 78.6582 7.44106 76.6267 7.44182C71.2168 7.44182 66.8319 11.7694 66.8319 17.108C66.8319 22.4467 71.2168 26.7758 76.6267 26.7758C79.0266 26.7753 81.343 25.9008 83.1367 24.318L80.3534 20.4556ZM58.0824 8.01427L55.343 11.8238C56.6657 11.9544 57.8925 12.5677 58.7857 13.5448C59.6789 14.5219 60.1749 15.7933 60.1777 17.1127C60.1777 20.048 57.7643 22.4265 54.7914 22.4265V3.24338H50.2293V7.44182C44.8195 7.44182 40.4346 11.7694 40.4346 17.108C40.4346 22.4483 44.8195 26.7758 50.2293 26.7758V31.1267H54.7914V26.7758C60.2012 26.7758 64.5861 22.4467 64.5861 17.108C64.5861 12.9127 61.8718 9.34893 58.0824 8.01427ZM44.8399 17.108C44.8399 14.1712 47.2533 11.7943 50.2262 11.7943V22.4234C49.521 22.4254 48.8223 22.2895 48.17 22.0235C47.5177 21.7575 46.9246 21.3665 46.4245 20.8729C45.9245 20.3793 45.5273 19.7928 45.2557 19.1468C44.984 18.5008 44.8433 17.808 44.8414 17.108H44.8399ZM90.9349 26.3869H85.9497V7.82604H90.9333V26.3885L90.9349 26.3869ZM91.568 17.1065L98.3099 7.82604H103.497L96.6989 16.9743L103.855 26.3869H98.5952L91.568 17.1065Z" fill="#C4C4C4"/>
<path d="M13.5357 10.1625H33.1676C32.1899 8.00333 30.7739 6.06765 29.0082 4.47643C27.2425 2.88521 25.1651 1.67269 22.9058 0.914673L13.5342 10.1625H13.5357Z" fill="#C4C4C4"/>
<path d="M34.1407 12.8847H10.2101C9.93754 12.8848 9.67107 12.8048 9.4443 12.6548C9.21754 12.5047 9.04065 12.2913 8.93597 12.0416C8.83166 11.7927 8.80443 11.5186 8.85774 11.2543C8.91105 10.99 9.0425 10.7474 9.2353 10.5576L19.7619 0.169556C18.9582 0.0579381 18.1476 0.0012861 17.336 0C7.7606 0 0 7.65955 0 17.1096C0 18.3742 0.144179 19.6062 0.407463 20.7947H24.5935C24.8659 20.7944 25.1322 20.8742 25.359 21.0239C25.5857 21.1737 25.7627 21.3867 25.8676 21.6362C25.9725 21.8852 26.0001 22.1595 25.9471 22.4241C25.894 22.6887 25.7627 22.9316 25.5698 23.1218L14.548 33.9982C15.4569 34.1444 16.3847 34.2222 17.3328 34.2222C26.9082 34.2222 34.6688 26.5627 34.6688 17.1127C34.6751 15.6504 34.4886 14.2364 34.1407 12.8847Z" fill="#C4C4C4"/>
<path d="M21.279 23.52H1.27881C2.19831 25.7526 3.5803 27.7685 5.33516 29.437C7.09002 31.1054 9.17857 32.3891 11.4654 33.2049L21.279 23.52Z" fill="#C4C4C4"/>
</svg>
