<svg width="90" height="45" viewBox="0 0 90 45" fill="none" xmlns="http://www.w3.org/2000/svg">
<path d="M76.5394 22.0494C76.5765 22.0322 76.5917 22.017 76.6048 22.0192C79.2503 22.0408 81.9176 21.7145 84.5305 22.2504C87.1869 22.7949 89.0806 24.5841 89.6668 27.4149C90.0547 29.297 89.9632 31.1316 89.2266 32.9186C88.4791 34.7207 87.1477 35.9114 85.328 36.4646C84.3518 36.7628 83.3014 36.9075 82.2794 36.9508C80.4859 37.0264 78.6816 36.9745 76.8816 36.9745C76.777 36.9745 76.6724 36.9616 76.5351 36.9486V22.0494H76.5394ZM79.7014 29.4612C79.7014 30.8744 79.7036 32.2855 79.7014 33.7008C79.7014 33.9472 79.6905 34.1568 80.0435 34.146C81.0176 34.1179 82.0004 34.1762 82.968 34.0833C84.4019 33.9472 85.5678 33.3032 86.1692 31.9073C86.7097 30.6583 86.7445 29.3467 86.4765 28.0242C86.1038 26.1767 84.8443 25.0293 82.9811 24.8823C82.0419 24.8067 81.0939 24.8413 80.1525 24.7937C79.7755 24.7765 79.6905 24.9169 79.6971 25.2691C79.7101 26.6694 79.7014 28.0653 79.7014 29.4612V29.4612ZM58.6462 36.9767C57.3888 36.9767 56.2535 36.981 55.1181 36.9659C55.0092 36.9659 54.8762 36.8514 54.8 36.7541C53.5927 35.1897 52.405 33.6165 51.1869 32.0629C51.0518 31.8922 50.775 31.7647 50.5527 31.7452C50.0537 31.6977 48.6264 31.7215 48.6264 31.7215C48.6264 31.7215 48.6089 31.8425 48.6133 32.1731C48.6264 33.5712 48.6176 34.9671 48.6176 36.3652V36.9443H45.4557V22.0235C45.5799 22.0105 45.6845 21.9889 45.7891 21.9889C47.9682 21.9933 50.1474 21.9781 52.3288 22.0149C53.4205 22.03 54.4578 22.326 55.4123 22.8922C56.7046 23.6593 57.3256 24.8456 57.428 26.302C57.476 26.9481 57.4193 27.6288 57.2799 28.2619C56.9704 29.6514 56.0508 30.5524 54.776 31.1099C54.6126 31.1813 54.4491 31.2569 54.2377 31.352C55.7 33.2189 57.1382 35.0514 58.6484 36.9789L58.6462 36.9767ZM48.6133 29.0377C49.6397 29.0377 50.6138 29.0398 51.5835 29.0355C51.8385 29.0355 52.1021 29.0377 52.3549 28.9858C53.621 28.7352 54.2617 27.9745 54.2094 26.8098C54.1571 25.6948 53.4445 24.958 52.1762 24.8629C51.0975 24.7829 50.0145 24.8218 48.9293 24.8002C48.6896 24.7916 48.6089 24.8931 48.6111 25.1243C48.6198 25.7078 48.6111 26.2934 48.6111 26.8768V29.0355L48.6133 29.0377ZM75.062 36.9724C73.9985 36.9724 72.9939 36.9832 71.9915 36.9616C71.8803 36.9594 71.7235 36.7801 71.6712 36.6504C71.3835 35.9568 71.1155 35.2566 70.8627 34.5522C70.7668 34.2864 70.6339 34.174 70.3353 34.174C68.3218 34.187 66.3104 34.187 64.2968 34.1762C63.9874 34.1741 63.8414 34.2735 63.7368 34.5738C63.4818 35.2934 63.1811 36 62.8825 36.7044C62.8324 36.8146 62.6929 36.9594 62.5883 36.9637C61.5837 36.9853 60.5813 36.9745 59.507 36.9745C59.8513 36.108 60.1629 35.302 60.492 34.4982C62.1329 30.4552 63.7825 26.4165 65.4147 22.3714C65.5302 22.084 65.6719 21.976 65.977 21.9868C66.877 22.0041 67.7791 21.9976 68.677 21.9911C68.908 21.9911 69.0605 22.0278 69.1651 22.2871C71.098 27.0864 73.0397 31.8835 74.9813 36.6807C75.0031 36.7498 75.0184 36.8233 75.0641 36.9767L75.062 36.9724ZM67.291 25.2497C66.4978 27.3284 65.7133 29.3877 64.9135 31.4924H69.6881C68.8796 29.3921 68.0908 27.3263 67.2888 25.2497H67.291ZM17.7692 36.9832H14.5985V22.0365C15.5748 22.0365 16.5314 22.0278 17.4816 22.0473C17.5818 22.0494 17.6973 22.1942 17.7736 22.2979C19.7523 25.079 21.7244 27.8665 23.6966 30.6518C23.9341 30.9846 24.176 31.3131 24.4724 31.7215V22.0538H27.6147V37.0048C26.6537 37.0048 25.6992 37.0156 24.7469 36.9918C24.638 36.9897 24.5094 36.8211 24.4266 36.7044C22.3084 33.7203 20.1946 30.734 18.0808 27.7476C18.0089 27.6439 17.9196 27.5488 17.7736 27.376L17.7692 36.9832ZM7.17188 22.0516H10.3099V36.9702H7.17188V22.0516ZM42.1869 36.0648C42.1869 36.1901 42.0234 36.3868 41.8905 36.4386C40.1603 37.3613 37.1879 37.6358 34.7537 36.9767C31.9121 36.2074 30.038 34.4204 29.4714 31.4795C28.9724 28.9059 29.3014 26.4446 31.1036 24.3789C32.1888 23.1385 33.6009 22.4535 35.183 22.0991C37.3273 21.6237 39.4041 21.8874 41.4438 22.6566C41.7641 22.7777 41.8687 22.9505 41.8557 23.2919C41.8295 24.1066 41.8448 24.9234 41.8448 25.8072C41.6726 25.7294 41.5702 25.6883 41.4678 25.6386C39.6133 24.7008 37.6891 24.4091 35.682 25.0401C33.5791 25.7013 32.3632 27.5618 32.5004 29.7853C32.5767 30.9479 32.8077 32.0456 33.5857 32.9488C34.4704 33.9774 35.6559 34.3923 36.9525 34.5003C37.5649 34.55 37.9898 34.5479 38.3624 34.4787C38.868 34.3815 39.1622 34.3793 39.1753 33.5733C39.16 32.884 39.1578 32.1342 39.1578 31.3822H36.5995V28.4867H39.1622V28.478C39.9053 28.478 40.6201 28.4759 41.3239 28.4867H41.7205V28.4888C41.8012 28.4931 41.8818 28.491 41.9624 28.4931C42.1607 28.4931 42.1847 28.6833 42.1847 28.7892C42.1978 31.0559 42.1978 33.7916 42.1825 36.0626L42.1869 36.0648Z" fill="#C4C4C4"/>
<path d="M3.14237 40.9657V16.7618L24.4743 5.4108V18.0519H27.6145V0.200958L0 14.8948V44.0795H27.6145V40.9635L3.14237 40.9657Z" fill="#C4C4C4"/>
</svg>
