<svg width="14" height="14" viewBox="0 0 14 14" fill="none" xmlns="http://www.w3.org/2000/svg">
<g clip-path="url(#clip0_353_1206)">
<path d="M9.36126 0H3.97207C1.78186 0 0 1.78186 0 3.97207V9.36126C0 11.5515 1.78186 13.3333 3.97207 13.3333H9.36126C11.5515 13.3333 13.3333 11.5515 13.3333 9.36126V3.97207C13.3333 1.78186 11.5514 0 9.36126 0ZM11.992 9.36126C11.992 10.8142 10.8142 11.992 9.36126 11.992H3.97207C2.51917 11.992 1.34133 10.8142 1.34133 9.36126V3.97207C1.34133 2.51914 2.51917 1.34133 3.97207 1.34133H9.36126C10.8142 1.34133 11.992 2.51914 11.992 3.97207V9.36126Z" fill="white"/>
<path d="M6.66625 3.2182C4.76476 3.2182 3.21777 4.76518 3.21777 6.66665C3.21777 8.56812 4.76476 10.1151 6.66625 10.1151C8.56774 10.1151 10.1147 8.56814 10.1147 6.66665C10.1147 4.76516 8.56774 3.2182 6.66625 3.2182ZM6.66625 8.77381C5.5025 8.77381 4.55911 7.83042 4.55911 6.66667C4.55911 5.50292 5.50252 4.55953 6.66625 4.55953C7.83 4.55953 8.77339 5.50292 8.77339 6.66667C8.77339 7.8304 7.82998 8.77381 6.66625 8.77381Z" fill="white"/>
<path d="M10.1222 4.07038C10.5786 4.07038 10.9485 3.70042 10.9485 3.24405C10.9485 2.78768 10.5786 2.41772 10.1222 2.41772C9.66586 2.41772 9.2959 2.78768 9.2959 3.24405C9.2959 3.70042 9.66586 4.07038 10.1222 4.07038Z" fill="white"/>
</g>
<defs>
<clipPath id="clip0_353_1206">
<rect width="13.3333" height="13.3333" fill="white"/>
</clipPath>
</defs>
</svg>
