<svg width="27" height="27" viewBox="0 0 27 27" fill="none" xmlns="http://www.w3.org/2000/svg">
<g clip-path="url(#clip0_192_1201)">
<path d="M18.9327 0H8.03332C3.60373 0 0 3.60373 0 8.03332V18.9327C0 23.3623 3.60373 26.966 8.03332 26.966H18.9327C23.3623 26.966 26.966 23.3623 26.966 18.9327V8.03332C26.9659 3.60373 23.3622 0 18.9327 0ZM24.2532 18.9327C24.2532 21.8711 21.8711 24.2532 18.9327 24.2532H8.03332C5.09489 24.2532 2.71278 21.8711 2.71278 18.9327V8.03332C2.71278 5.09484 5.09489 2.71278 8.03332 2.71278H18.9327C21.8711 2.71278 24.2532 5.09484 24.2532 8.03332V18.9327Z" fill="white"/>
<path d="M13.4827 6.50879C9.637 6.50879 6.5083 9.63748 6.5083 13.4831C6.5083 17.3287 9.637 20.4575 13.4827 20.4575C17.3283 20.4575 20.457 17.3288 20.457 13.4831C20.457 9.63743 17.3283 6.50879 13.4827 6.50879ZM13.4827 17.7447C11.129 17.7447 9.22108 15.8368 9.22108 13.4832C9.22108 11.1295 11.1291 9.22157 13.4827 9.22157C15.8363 9.22157 17.7443 11.1295 17.7443 13.4832C17.7443 15.8367 15.8362 17.7447 13.4827 17.7447Z" fill="white"/>
<path d="M20.471 8.23303C21.394 8.23303 22.1422 7.48481 22.1422 6.56183C22.1422 5.63885 21.394 4.89062 20.471 4.89062C19.548 4.89062 18.7998 5.63885 18.7998 6.56183C18.7998 7.48481 19.548 8.23303 20.471 8.23303Z" fill="white"/>
</g>
<defs>
<clipPath id="clip0_192_1201">
<rect width="26.966" height="26.966" fill="white"/>
</clipPath>
</defs>
</svg>
