<svg width="120" height="31" viewBox="0 0 120 31" fill="none" xmlns="http://www.w3.org/2000/svg">
<path fill-rule="evenodd" clip-rule="evenodd" d="M105.931 0.468601C96.4262 3.53019 96.691 17.0871 106.31 19.8873C115.884 22.6739 123.58 12.3503 117.972 4.24269C115.602 0.814769 110.155 -0.892195 105.931 0.468601ZM0 10.1296V20.0297H1.79007C3.91945 20.0297 3.816 20.131 9.13904 12.8458L13.0345 7.5142L13.2414 13.6691L13.4483 19.8239H15.5172H17.5862V10.151V0.478068H15.7241H13.8621L9.31034 6.56708L4.75862 12.6565L4.55172 6.56708L4.34483 0.478068L2.17241 0.353761L0 0.229042V10.1296ZM22.3448 10.151V20.073L24.5172 19.9482L26.6897 19.8239L26.8084 15.7963L26.9268 11.7691L31.1532 11.886L35.3793 12.0033L35.4977 16.0165L35.616 20.0297H37.6701H39.7241V10.151V0.272261H37.6552H35.5862V4.1826V8.09293H31.2571H26.9276L26.8088 4.2855L26.6897 0.478068L24.5172 0.353761L22.3448 0.229042V10.151ZM42.8967 0.546808C42.7448 0.697459 42.6207 1.62359 42.6207 2.60488V4.3884H45.7241H48.8276V12.2091V20.0297H50.8966H52.9655V12.2091V4.3884H56.069H59.1724V2.33033V0.272261H51.1726C46.7723 0.272261 43.0481 0.395745 42.8967 0.546808ZM62.069 10.151V20.0297H69.7241H77.3793V17.9717V15.9136H72H66.6207V13.8555V11.7975H71.7931H76.9655V10.151V8.50454H71.7931H66.6207V6.44647V4.3884H72H77.3793V2.33033V0.272261H69.7241H62.069V10.151ZM81.931 10.151V20.0297H84H86.069V16.1194V12.2091L87.2069 12.2222C88.1599 12.2329 88.8128 12.8689 91.2236 16.1326L94.1028 20.0297H96.4995C99.4916 20.0297 99.5661 20.3586 95.3239 14.8236L91.7512 10.1625L95.3239 5.50141C99.5503 -0.0129874 99.4788 0.272261 96.6368 0.272261C94.0531 0.272261 94.0597 0.267322 90.6207 4.9626C88.7516 7.51461 88.1417 8.07194 87.2069 8.0814L86.069 8.09293V4.1826V0.272261H84H81.931V10.151ZM112.109 4.57939C117.898 7.55742 115.845 16.3252 109.359 16.3252C107.018 16.3252 105.048 15.1163 103.966 13.0175C101.212 7.67638 106.824 1.86109 112.109 4.57939ZM0 28.4678V30.7317H4.55172H9.10345V28.4678V26.204H4.55172H0V28.4678ZM17.3793 28.4678V30.7317H28.7586H40.1379V28.4678V26.204H28.7586H17.3793V28.4678ZM48.4138 28.4678V30.7317H63.1035H77.7931V28.4678V26.204H63.1035H48.4138V28.4678ZM86.069 28.4678V30.7317H103.034H120V28.4678V26.204H103.034H86.069V28.4678Z" fill="white"/>
</svg>
