<svg width="32" height="31" viewBox="0 0 32 31" fill="none" xmlns="http://www.w3.org/2000/svg">
<path d="M25.8645 3.81674C25.5579 3.83904 25.2569 3.91097 24.9734 4.02972H24.9696C24.6974 4.13764 23.4032 4.68204 21.4358 5.50723L14.3853 8.47659C9.32626 10.6064 4.35314 12.7038 4.35314 12.7038L4.41235 12.6809C4.41235 12.6809 4.06948 12.7936 3.71132 13.039C3.49006 13.1798 3.29966 13.364 3.15164 13.5806C2.97591 13.8384 2.83456 14.2329 2.88708 14.6407C2.97304 15.3303 3.42002 15.7438 3.74093 15.9721C4.06566 16.2032 4.3751 16.3111 4.3751 16.3111H4.38275L9.04642 17.8822C9.25558 18.5537 10.4676 22.5383 10.7589 23.4561C10.9308 24.0043 11.0979 24.3472 11.3071 24.6089C11.4083 24.7426 11.5268 24.8544 11.6691 24.9441C11.7431 24.9872 11.8219 25.0212 11.904 25.0454L11.8563 25.0339C11.8706 25.0377 11.8821 25.0492 11.8926 25.053C11.9308 25.0635 11.9566 25.0673 12.0053 25.075C12.7435 25.2985 13.3367 24.84 13.3367 24.84L13.3701 24.8133L16.1236 22.3062L20.7385 25.8467L20.8436 25.8916C21.8054 26.3137 22.7796 26.0788 23.2944 25.6643C23.813 25.2469 24.0145 24.713 24.0145 24.713L24.0479 24.627L27.6142 6.35726C27.7154 5.90646 27.7412 5.48431 27.6295 5.07458C27.5142 4.65991 27.2482 4.30326 26.8836 4.07461C26.5774 3.88848 26.2223 3.79864 25.8645 3.81674ZM25.768 5.77466C25.7642 5.83483 25.7757 5.82814 25.7489 5.94371V5.95421L22.2161 24.0339C22.2008 24.0597 22.175 24.1161 22.1043 24.1724C22.0298 24.2316 21.9706 24.2689 21.6602 24.1457L16.0157 19.8182L12.606 22.926L13.3223 18.3512L22.5446 9.75544C22.9247 9.40206 22.7977 9.32757 22.7977 9.32757C22.8244 8.89396 22.2237 9.20054 22.2237 9.20054L10.5946 16.4047L10.5908 16.3856L5.01692 14.5089V14.5051L5.00259 14.5022C5.01237 14.499 5.02193 14.4951 5.03125 14.4907L5.06181 14.4755L5.09142 14.465C5.09142 14.465 10.0684 12.3676 15.1274 10.2378C17.6603 9.17093 20.2123 8.09646 22.175 7.26745C24.1377 6.44322 25.5885 5.83865 25.6706 5.80617C25.7489 5.77561 25.7117 5.77561 25.768 5.77561V5.77466Z" fill="white"/>
</svg>
