<svg width="14" height="14" viewBox="0 0 14 14" fill="none" xmlns="http://www.w3.org/2000/svg">
<path d="M11.196 1.665C11.0622 1.67473 10.931 1.70611 10.8073 1.75791H10.8056C10.6868 1.805 10.1223 2.0425 9.26392 2.4025L6.18809 3.69791C3.981 4.62708 1.81142 5.54208 1.81142 5.54208L1.83725 5.53208C1.83725 5.53208 1.68767 5.58125 1.53142 5.68833C1.43489 5.74976 1.35183 5.83013 1.28725 5.92458C1.21059 6.03708 1.14892 6.20916 1.17184 6.38708C1.20934 6.68791 1.40434 6.86833 1.54434 6.96791C1.686 7.06875 1.821 7.11583 1.821 7.11583H1.82434L3.85892 7.80125C3.95017 8.09416 4.47892 9.8325 4.606 10.2329C4.681 10.4721 4.75392 10.6217 4.84517 10.7358C4.88934 10.7942 4.941 10.8429 5.00309 10.8821C5.03536 10.9009 5.06978 10.9157 5.10559 10.9262L5.08475 10.9212C5.091 10.9229 5.096 10.9279 5.10059 10.9296C5.11725 10.9342 5.1285 10.9358 5.14975 10.9392C5.47184 11.0367 5.73059 10.8367 5.73059 10.8367L5.74517 10.825L6.94642 9.73125L8.95975 11.2758L9.00559 11.2954C9.42517 11.4796 9.85017 11.3771 10.0748 11.1962C10.301 11.0142 10.3889 10.7812 10.3889 10.7812L10.4035 10.7437L11.9593 2.77333C12.0035 2.57666 12.0148 2.3925 11.966 2.21375C11.9157 2.03284 11.7997 1.87725 11.6406 1.7775C11.507 1.6963 11.3521 1.6571 11.196 1.665ZM11.1539 2.51916C11.1523 2.54541 11.1573 2.5425 11.1456 2.59291V2.5975L9.60434 10.485C9.59767 10.4962 9.58642 10.5208 9.55559 10.5454C9.52309 10.5712 9.49725 10.5875 9.36184 10.5337L6.89934 8.64583L5.41184 10.0017L5.72434 8.00583L9.74767 4.25583C9.9135 4.10166 9.85809 4.06916 9.85809 4.06916C9.86975 3.88 9.60767 4.01375 9.60767 4.01375L4.53434 7.15666L4.53267 7.14833L2.101 6.32958V6.32791L2.09475 6.32666C2.09902 6.32525 2.10319 6.32358 2.10725 6.32166L2.12059 6.315L2.1335 6.31041C2.1335 6.31041 4.30475 5.39541 6.51184 4.46625C7.61684 4.00083 8.73017 3.53208 9.58642 3.17041C10.4427 2.81083 11.0756 2.54708 11.1114 2.53291C11.1456 2.51958 11.1293 2.51958 11.1539 2.51958V2.51916Z" fill="white"/>
</svg>
