<svg width="93" height="29" viewBox="0 0 93 29" fill="none" xmlns="http://www.w3.org/2000/svg">
<path fill-rule="evenodd" clip-rule="evenodd" d="M3.794 4.45822L0 8.91644V18.9582V29L10.8929 28.9926L21.7857 28.9853L25.3881 24.5719L28.9906 20.1585L28.9953 10.0793L29 0H18.294H7.588L3.794 4.45822ZM38.3444 1.38295C37.7087 2.13949 35.9891 4.17515 34.523 5.90666L31.8571 9.05465V19.0274V29H42.7786H53.7001L57.35 24.532L61 20.0639V10.032V0L50.25 0.00367819L39.5 0.00735583L38.3444 1.38295ZM67.669 4.49146L63.8584 8.98293L63.8579 18.9915L63.8571 29H74.7547H85.6521L89.3246 24.5085L92.9969 20.0171L92.9984 10.0085L93 0H82.2399H71.4797L67.669 4.49146ZM45.7143 12.4847C46.1464 12.6813 46.8051 13.0879 47.178 13.3881C47.551 13.6884 47.8563 13.9994 47.8566 14.0791C47.8569 14.1589 47.376 14.6975 46.7879 15.2759L45.7184 16.3279L45.2521 15.8895C44.9956 15.6484 44.5906 15.354 44.3521 15.2353C44.1137 15.1165 43.6816 14.9753 43.3917 14.9216C43.094 14.8661 42.5423 14.9002 42.123 14.9998C41.5764 15.1297 41.2231 15.3325 40.7807 15.7708C40.4073 16.1404 40.0616 16.6791 39.8669 17.1947C39.6483 17.7729 39.5733 18.2216 39.6187 18.6766C39.6547 19.0355 39.8237 19.6505 39.9944 20.0435C40.165 20.4364 40.5096 20.9546 40.76 21.1949C41.0104 21.4352 41.4964 21.7301 41.8399 21.85C42.1834 21.9701 42.7296 22.0669 43.0537 22.0652C43.3777 22.0635 43.9 21.943 44.2143 21.7974C44.5286 21.6518 45.0013 21.3498 45.2647 21.126L45.7439 20.7193L46.7979 21.7828L47.8517 22.8463L47.3901 23.2758C47.1363 23.5121 46.7357 23.8373 46.5 23.9986C46.2643 24.1598 45.7179 24.4205 45.2857 24.578C44.8536 24.7354 44.05 24.9082 43.5 24.9616C42.8026 25.0297 42.1771 24.9922 41.4329 24.838C40.846 24.7163 40.0314 24.4494 39.623 24.2447C39.2144 24.0401 38.5576 23.5548 38.1633 23.1665C37.7393 22.7487 37.2319 22.0302 36.9211 21.4077C36.4809 20.5252 36.3839 20.1628 36.3211 19.1663C36.2774 18.4746 36.3199 17.6057 36.4226 17.0877C36.5194 16.598 36.7687 15.8535 36.9763 15.4331C37.1839 15.0125 37.7097 14.3123 38.145 13.877C38.5803 13.4416 39.2489 12.9333 39.6306 12.7474C40.0124 12.5617 40.6214 12.3249 40.9839 12.2213C41.4161 12.0978 42.208 12.0493 43.2857 12.0801C44.6773 12.12 45.0487 12.1818 45.7143 12.4847ZM75.9371 12.3843C76.5244 12.5044 77.245 12.7376 77.5383 12.9026C77.8314 13.0675 78.2749 13.3902 78.5234 13.6197C78.772 13.8491 79.1499 14.4218 79.3631 14.8923C79.7177 15.6747 79.7449 15.8575 79.6806 17.0336C79.642 17.7409 79.5091 18.5569 79.3851 18.847C79.2613 19.1372 78.8507 19.7037 78.4729 20.1059C78.0667 20.5382 77.4643 20.9848 77 21.1977C76.3129 21.5128 75.977 21.5651 74.3214 21.6148L72.4286 21.6716V23.2139V24.7561H70.7857H69.1429V18.5553C69.1429 15.1448 69.1857 12.312 69.2381 12.2602C69.2904 12.2083 70.5789 12.1659 72.1013 12.1659C74.0404 12.1659 75.189 12.2312 75.9371 12.3843ZM15.7143 18.3902V24.4732H14.1429H12.5714V19.8142V15.1554L11.1281 15.1106C10.3343 15.0859 9.634 15.0977 9.57186 15.1366C9.50971 15.1755 9.41543 15.9394 9.36243 16.8341C9.30929 17.7289 9.208 18.8748 9.13729 19.3805C9.06643 19.8862 8.90314 20.6501 8.77429 21.078C8.64543 21.506 8.42157 22.0861 8.277 22.3672C8.13257 22.6482 7.68771 23.1689 7.28857 23.5242C6.879 23.8889 6.26929 24.2647 5.88857 24.3867C5.51771 24.5058 4.95714 24.6217 4.64286 24.6443L4.07143 24.6854L4.03071 23.3253L3.99014 21.9652L4.42214 21.7881C4.65971 21.6906 5.07071 21.3734 5.33543 21.0833C5.60014 20.793 5.92071 20.2754 6.04771 19.9328C6.17471 19.5901 6.34443 18.6916 6.425 17.936C6.50557 17.1806 6.57143 15.605 6.57143 14.4348V12.3073H11.1429H15.7143V18.3902ZM72.4286 16.9741V18.9947L73.7507 18.9261C74.537 18.8855 75.2466 18.7688 75.5011 18.6385C75.7366 18.5178 76.051 18.286 76.1997 18.1233C76.358 17.9502 76.4946 17.5477 76.5287 17.1539C76.5726 16.6504 76.5149 16.3662 76.3 16.0277C76.142 15.7785 75.8093 15.4706 75.5607 15.3433C75.2853 15.2022 74.5854 15.081 73.7687 15.0328L72.4286 14.9535V16.9741Z" fill="#C4C4C4"/>
</svg>
