<svg width="35" height="35" viewBox="0 0 35 35" fill="none" xmlns="http://www.w3.org/2000/svg">
<path d="M17.4445 18.5744C18.2288 18.5744 18.8647 17.9386 18.8647 17.1542C18.8647 16.3699 18.2288 15.7341 17.4445 15.7341C16.6602 15.7341 16.0244 16.3699 16.0244 17.1542C16.0244 17.9386 16.6602 18.5744 17.4445 18.5744Z" stroke="#AEAEAE" stroke-width="2.84024" stroke-linecap="round" stroke-linejoin="round"/>
<path d="M17.4445 8.63345C18.2288 8.63345 18.8647 7.99764 18.8647 7.21333C18.8647 6.42902 18.2288 5.79321 17.4445 5.79321C16.6602 5.79321 16.0244 6.42902 16.0244 7.21333C16.0244 7.99764 16.6602 8.63345 17.4445 8.63345Z" stroke="#AEAEAE" stroke-width="2.84024" stroke-linecap="round" stroke-linejoin="round"/>
<path d="M17.4445 28.5148C18.2288 28.5148 18.8647 27.879 18.8647 27.0947C18.8647 26.3104 18.2288 25.6746 17.4445 25.6746C16.6602 25.6746 16.0244 26.3104 16.0244 27.0947C16.0244 27.879 16.6602 28.5148 17.4445 28.5148Z" stroke="#AEAEAE" stroke-width="2.84024" stroke-linecap="round" stroke-linejoin="round"/>
</svg>
