<svg width="15" height="19" viewBox="0 0 15 19" fill="none" xmlns="http://www.w3.org/2000/svg">
<path d="M13.5459 13.0366L10.7181 11.1985L11.7842 9.24398C12.0328 8.78754 12.1632 8.27618 12.1635 7.75647V4.66235C12.1635 3.50889 11.7053 2.40268 10.8897 1.58706C10.0741 0.771441 8.96788 0.313232 7.81442 0.313232C6.66096 0.313232 5.55475 0.771441 4.73913 1.58706C3.92351 2.40268 3.4653 3.50889 3.4653 4.66235V7.75647C3.46569 8.27619 3.59608 8.78757 3.84461 9.24402L4.91073 11.1985L2.0829 13.0366C1.6483 13.3179 1.2912 13.7037 1.04427 14.1588C0.797336 14.6138 0.668462 15.1235 0.669439 15.6412V18.9523H14.9594V15.6412C14.9604 15.1235 14.8315 14.6138 14.5846 14.1588C14.3376 13.7038 13.9805 13.3179 13.5459 13.0366ZM13.7168 17.7097H1.91204V15.6412C1.91146 15.3306 1.98879 15.0248 2.13696 14.7517C2.28513 14.4787 2.4994 14.2472 2.76016 14.0784L6.55244 11.6134L4.9355 8.64901C4.78639 8.37513 4.70815 8.06831 4.70791 7.75647V4.66235C4.70791 3.83845 5.0352 3.0483 5.61778 2.46571C6.20037 1.88313 6.99052 1.55584 7.81442 1.55584C8.63832 1.55584 9.42848 1.88313 10.0111 2.46571C10.5936 3.0483 10.9209 3.83845 10.9209 4.66235V7.75647C10.9207 8.06831 10.8425 8.37513 10.6933 8.64901L9.07644 11.6134L12.8688 14.0784C13.1295 14.2472 13.3438 14.4787 13.4919 14.7518C13.6401 15.0248 13.7174 15.3306 13.7168 15.6412V17.7097Z" fill="#0723DF"/>
</svg>
