<svg width="30" height="29" viewBox="0 0 30 29" fill="none" xmlns="http://www.w3.org/2000/svg">
<path fill-rule="evenodd" clip-rule="evenodd" d="M24.1975 5.22629C22.9976 4.02421 21.5699 3.07105 19.9972 2.42203C18.4246 1.77302 16.7381 1.44105 15.0356 1.44535C7.89645 1.44535 2.08473 7.22805 2.08185 14.3361C2.08185 16.6079 2.67773 18.825 3.81035 20.7808L1.97363 27.4596L8.84006 25.666C10.7394 26.695 12.8673 27.2346 15.0298 27.2356H15.0356C22.1732 27.2356 27.985 21.4529 27.9878 14.3448C27.9927 12.651 27.6603 10.9731 27.0097 9.40795C26.3591 7.84283 25.4033 6.42156 24.1975 5.22629ZM15.0356 25.06H15.0312C13.1029 25.0602 11.2101 24.5439 9.55137 23.5652L9.15892 23.3326L5.08437 24.3966L6.17082 20.4434L5.91544 20.0384C4.83734 18.3302 4.26662 16.3534 4.26917 14.3361C4.27206 8.42853 9.10121 3.6223 15.0399 3.6223C16.4542 3.61917 17.8551 3.89525 19.1616 4.43456C20.468 4.97387 21.6539 5.7657 22.6508 6.76422C23.653 7.75798 24.4474 8.93958 24.988 10.2407C25.5287 11.5419 25.8048 12.9368 25.8005 14.3448C25.7976 20.2524 20.9685 25.06 15.0356 25.06ZM20.9411 17.0344C20.6164 16.8721 19.0264 16.0938 18.7292 15.9861C18.4334 15.8784 18.2184 15.8253 18.002 16.1469C17.7856 16.4686 17.1652 17.1937 16.9762 17.4091C16.7872 17.6245 16.5981 17.6504 16.275 17.4896C15.9518 17.3287 14.9086 16.9884 13.6721 15.8913C12.7097 15.0369 12.0604 13.9829 11.8714 13.6598C11.6824 13.3367 11.8512 13.163 12.0143 13.0021C12.16 12.8585 12.3375 12.6259 12.4991 12.4378C12.6607 12.2497 12.7141 12.1161 12.8223 11.9007C12.9305 11.6853 12.8771 11.4972 12.7948 11.3364C12.7141 11.1741 12.0662 9.5888 11.7964 8.94404C11.5353 8.31939 11.2683 8.40268 11.0692 8.39406C10.863 8.38567 10.6566 8.38184 10.4503 8.38257C10.2861 8.38674 10.1247 8.4246 9.97594 8.49379C9.82722 8.56298 9.69446 8.662 9.586 8.78465C9.28878 9.10774 8.45338 9.88605 8.45338 11.4714C8.45338 13.0567 9.61341 14.5889 9.77501 14.8043C9.9366 15.0197 12.0576 18.2722 15.3039 19.6679C16.0773 19.9997 16.6804 20.1978 17.1493 20.3472C17.9241 20.5927 18.6297 20.5568 19.188 20.475C19.8099 20.3831 21.1027 19.6967 21.3725 18.9442C21.6423 18.1918 21.6423 17.547 21.5615 17.412C21.4807 17.277 21.2628 17.1952 20.9411 17.0344Z" fill="white"/>
</svg>
