<svg width="14" height="14" viewBox="0 0 14 14" fill="none" xmlns="http://www.w3.org/2000/svg">
<g clip-path="url(#clip0_353_1217)">
<path fill-rule="evenodd" clip-rule="evenodd" d="M11.5846 2.4108C11.0311 1.85629 10.3725 1.41662 9.64704 1.11723C8.92158 0.817853 8.14364 0.66472 7.35829 0.666706C4.06512 0.666706 1.38426 3.33418 1.38292 6.61304C1.38292 7.66095 1.6578 8.68369 2.18026 9.58588L1.33301 12.6667L4.50039 11.8394C5.37652 12.314 6.35809 12.5629 7.35562 12.5634H7.35829C10.6508 12.5634 13.3317 9.89588 13.333 6.61702C13.3352 5.83571 13.1819 5.0617 12.8818 4.33974C12.5817 3.61777 12.1408 2.96216 11.5846 2.4108ZM7.35829 11.5598H7.35629C6.46679 11.5599 5.59365 11.3217 4.82851 10.8703L4.64748 10.763L2.76795 11.2538L3.26911 9.43021L3.15131 9.24342C2.654 8.45545 2.39073 7.54357 2.39191 6.61304C2.39324 3.88794 4.62085 1.6709 7.36028 1.6709C8.01269 1.66946 8.65892 1.79681 9.26155 2.04559C9.86417 2.29436 10.4112 2.65962 10.8711 3.12022C11.3334 3.57863 11.6998 4.12369 11.9492 4.72389C12.1986 5.32408 12.326 5.96753 12.324 6.61702C12.3227 9.34212 10.0951 11.5598 7.35829 11.5598ZM10.0824 7.85769C9.93266 7.78283 9.19921 7.42382 9.06211 7.37414C8.92567 7.32446 8.8265 7.29995 8.72667 7.44832C8.62684 7.5967 8.34065 7.93121 8.25346 8.03057C8.16627 8.12993 8.07908 8.14185 7.93 8.06767C7.78091 7.99348 7.29972 7.83649 6.72934 7.33042C6.28541 6.93629 5.98591 6.45009 5.89872 6.30105C5.81153 6.15201 5.8894 6.07186 5.96461 5.99768C6.03183 5.93144 6.1137 5.82413 6.18824 5.73735C6.26278 5.65058 6.28741 5.58898 6.33732 5.48962C6.38724 5.39026 6.36261 5.30348 6.32468 5.22929C6.28741 5.15444 5.98857 4.42316 5.86411 4.12574C5.74365 3.8376 5.62052 3.87602 5.52867 3.87204C5.43355 3.86817 5.33835 3.8664 5.24315 3.86674C5.16745 3.86866 5.09296 3.88613 5.02436 3.91805C4.95575 3.94996 4.89451 3.99564 4.84448 4.05222C4.70738 4.20126 4.32202 4.56027 4.32202 5.29156C4.32202 6.02285 4.85713 6.72962 4.93167 6.82898C5.00621 6.92834 5.98458 8.42867 7.48208 9.07252C7.83882 9.22553 8.11702 9.31695 8.33333 9.38583C8.69073 9.4991 9.01619 9.48254 9.27376 9.44479C9.56061 9.4024 10.1569 9.08577 10.2814 8.73867C10.4059 8.39158 10.4059 8.09416 10.3686 8.0319C10.3313 7.96963 10.2308 7.93187 10.0824 7.85769Z" fill="white"/>
</g>
<defs>
<clipPath id="clip0_353_1217">
<rect width="13.3333" height="13.3333" fill="white" transform="translate(0.666016)"/>
</clipPath>
</defs>
</svg>
